<svg width="1024" height="1024" viewBox="0 0 1024 1024" fill="none" xmlns="http://www.w3.org/2000/svg">
    <defs>
        <linearGradient id="bg_grad" x1="0" y1="0" x2="1024" y2="1024" gradientUnits="userSpaceOnUse">
            <stop offset="0%" stop-color="#2C3E50"/>
            <stop offset="100%" stop-color="#000000"/>
        </linearGradient>
        <filter id="shadow" x="0" y="0" width="1024" height="1024" filterUnits="userSpaceOnUse" color-interpolation-filters="sRGB">
            <feDropShadow dx="0" dy="20" stdDeviation="30" flood-opacity="0.3"/>
        </filter>
    </defs>
    
    <!-- Squircle Background -->
    <rect x="128" y="128" width="768" height="768" rx="180" fill="url(#bg_grad)" filter="url(#shadow)"/>
    
    <!-- Stylized Paper Sheet -->
    <rect x="256" y="256" width="512" height="512" rx="40" fill="white" fill-opacity="0.1"/>
    <rect x="280" y="280" width="464" height="464" rx="30" fill="white" fill-opacity="0.05"/>
    
    <!-- Markdown Symbol (M↓) -->
    <g transform="translate(362, 412) scale(1.5)">
        <!-- M -->
        <path d="M0 60V0H15L30 25L45 0H60V60H45V25L30 50L15 25V60H0Z" fill="white"/>
        <!-- Arrow Down -->
        <path d="M80 0V40H70L90 60L110 40H100V0H80Z" fill="#3498DB"/>
    </g>
    
    <!-- Accent Line -->
    <rect x="256" y="740" width="512" height="4" rx="2" fill="#3498DB" fill-opacity="0.5"/>
</svg>